<svg width="1589" height="282" viewBox="0 0 1589 282" fill="none" xmlns="http://www.w3.org/2000/svg">
<path d="M472.5 145.2C472.5 160.4 469.2 174.1 462.6 186.3C456 198.3 447 207.8 435.6 214.8C424.2 221.6 411.2 225 396.6 225C382.4 225 369.5 221.6 357.9 214.8C346.5 207.8 337.4 198.3 330.6 186.3C324 174.1 320.7 160.4 320.7 145.2C320.7 129.8 324 116.1 330.6 104.1C337.4 92.1 346.5 82.6 357.9 75.6C369.5 68.6 382.4 65.1 396.6 65.1C411.2 65.1 424.2 68.6 435.6 75.6C447 82.6 456 92.1 462.6 104.1C469.2 116.1 472.5 129.8 472.5 145.2ZM454.5 145.2C454.5 133 452 122.2 447 112.8C442 103.2 435.1 95.7 426.3 90.3C417.7 84.7 407.8 81.9 396.6 81.9C385.8 81.9 376 84.7 367.2 90.3C358.4 95.7 351.4 103.2 346.2 112.8C341.2 122.2 338.7 133 338.7 145.2C338.7 157.4 341.2 168.2 346.2 177.6C351.4 187 358.4 194.5 367.2 200.1C376 205.5 385.8 208.2 396.6 208.2C407.8 208.2 417.7 205.5 426.3 200.1C435.1 194.5 442 187 447 177.6C452 168.2 454.5 157.4 454.5 145.2ZM583.055 65.1C596.255 65.1 606.755 67.8 614.555 73.2C622.555 78.4 628.255 85.6 631.655 94.8C635.255 103.8 637.055 113.8 637.055 124.8V213C637.055 215.4 636.155 217.5 634.355 219.3C632.555 221.1 630.455 222 628.055 222C625.255 222 623.055 221.1 621.455 219.3C619.855 217.5 619.055 215.4 619.055 213V125.7C619.055 117.7 617.755 110.4 615.155 103.8C612.555 97.2 608.255 91.9 602.255 87.9C596.455 83.9 588.755 81.9 579.155 81.9C570.555 81.9 562.355 83.9 554.555 87.9C546.955 91.9 540.755 97.2 535.955 103.8C531.155 110.4 528.755 117.7 528.755 125.7V213C528.755 215.4 527.855 217.5 526.055 219.3C524.255 221.1 522.155 222 519.755 222C516.955 222 514.755 221.1 513.155 219.3C511.555 217.5 510.755 215.4 510.755 213V78.6C510.755 76.2 511.555 74.1 513.155 72.3C514.955 70.5 517.155 69.6 519.755 69.6C522.355 69.6 524.455 70.5 526.055 72.3C527.855 74.1 528.755 76.2 528.755 78.6V103.8L521.855 114.6C522.255 108.2 524.255 102.1 527.855 96.3C531.655 90.3 536.455 85 542.255 80.4C548.055 75.6 554.455 71.9 561.455 69.3C568.655 66.5 575.855 65.1 583.055 65.1ZM675.492 197.7C673.892 195.3 673.092 193 673.092 190.8C673.292 188.4 674.592 186.5 676.992 185.1C678.592 183.7 680.392 183.1 682.392 183.3C684.592 183.5 686.592 184.5 688.392 186.3C693.792 193.3 700.292 199 707.892 203.4C715.692 207.6 724.892 209.7 735.492 209.7C741.092 209.7 746.592 208.8 751.992 207C757.592 205 762.192 202.1 765.792 198.3C769.392 194.3 771.192 189.3 771.192 183.3C771.192 177.1 769.392 172.1 765.792 168.3C762.192 164.5 757.492 161.5 751.692 159.3C746.092 157.1 740.092 155.2 733.692 153.6C726.892 151.8 720.292 149.8 713.892 147.6C707.492 145.2 701.792 142.3 696.792 138.9C691.992 135.3 688.092 131 685.092 126C682.092 121 680.592 114.9 680.592 107.7C680.592 99.3 682.892 91.9 687.492 85.5C692.092 79.1 698.292 74.1 706.092 70.5C714.092 66.9 723.092 65.1 733.092 65.1C738.092 65.1 743.492 65.8 749.292 67.2C755.092 68.4 760.792 70.5 766.392 73.5C771.992 76.5 776.992 80.6 781.392 85.8C783.192 87.6 784.092 89.7 784.092 92.1C784.092 94.3 783.092 96.3 781.092 98.1C779.492 99.3 777.592 99.9 775.392 99.9C773.392 99.9 771.692 99.1 770.292 97.5C765.492 92.1 759.792 88 753.192 85.2C746.592 82.4 739.492 81 731.892 81C726.092 81 720.592 82 715.392 84C710.392 85.8 706.192 88.6 702.792 92.4C699.392 96.2 697.692 101.2 697.692 107.4C698.092 113.2 700.092 117.9 703.692 121.5C707.492 125.1 712.392 128.1 718.392 130.5C724.592 132.9 731.492 135.1 739.092 137.1C745.492 138.7 751.592 140.6 757.392 142.8C763.392 145 768.592 147.8 772.992 151.2C777.592 154.4 781.192 158.5 783.792 163.5C786.592 168.5 787.992 174.8 787.992 182.4C787.992 191.2 785.492 198.8 780.492 205.2C775.692 211.6 769.192 216.5 760.992 219.9C752.792 223.3 743.692 225 733.692 225C722.892 225 712.392 222.9 702.192 218.7C692.192 214.5 683.292 207.5 675.492 197.7ZM814.917 69.3H884.817C887.217 69.3 889.217 70.2 890.817 72C892.417 73.6 893.217 75.6 893.217 78C893.217 80.2 892.417 82.1 890.817 83.7C889.217 85.3 887.217 86.1 884.817 86.1H814.917C812.517 86.1 810.417 85.3 808.617 83.7C807.017 81.9 806.217 79.9 806.217 77.7C806.217 75.3 807.017 73.3 808.617 71.7C810.417 70.1 812.517 69.3 814.917 69.3ZM845.817 27C848.417 27 850.517 27.9 852.117 29.7C853.917 31.5 854.817 33.6 854.817 36V186.6C854.817 192.2 855.517 196.4 856.917 199.2C858.517 202 860.517 203.9 862.917 204.9C865.317 205.7 867.717 206.1 870.117 206.1C871.717 206.1 873.117 205.9 874.317 205.5C875.717 204.9 877.217 204.6 878.817 204.6C880.617 204.6 882.117 205.3 883.317 206.7C884.717 208.1 885.417 209.9 885.417 212.1C885.417 214.9 883.817 217.3 880.617 219.3C877.417 221.1 873.617 222 869.217 222C867.417 222 864.717 221.9 861.117 221.7C857.517 221.3 853.817 220.2 850.017 218.4C846.217 216.4 843.017 213 840.417 208.2C838.017 203.4 836.817 196.5 836.817 187.5V36C836.817 33.6 837.617 31.5 839.217 29.7C841.017 27.9 843.217 27 845.817 27ZM1052.18 68.7C1054.78 68.7 1056.88 69.6 1058.48 71.4C1060.28 73.2 1061.18 75.4 1061.18 78V213C1061.18 215.4 1060.28 217.5 1058.48 219.3C1056.68 221.1 1054.58 222 1052.18 222C1049.58 222 1047.38 221.1 1045.58 219.3C1043.98 217.5 1043.18 215.4 1043.18 213V177.3L1048.28 174.9C1048.28 180.5 1046.68 186.2 1043.48 192C1040.48 197.8 1036.28 203.2 1030.88 208.2C1025.48 213.2 1019.08 217.3 1011.68 220.5C1004.48 223.5 996.677 225 988.277 225C974.677 225 962.477 221.5 951.677 214.5C941.077 207.5 932.677 197.9 926.477 185.7C920.477 173.5 917.477 159.8 917.477 144.6C917.477 129 920.577 115.3 926.777 103.5C932.977 91.5 941.377 82.1 951.977 75.3C962.577 68.5 974.577 65.1 987.977 65.1C996.577 65.1 1004.58 66.6 1011.98 69.6C1019.58 72.6 1026.18 76.7 1031.78 81.9C1037.38 87.1 1041.68 93.1 1044.68 99.9C1047.88 106.5 1049.48 113.4 1049.48 120.6L1043.18 116.1V78C1043.18 75.4 1043.98 73.2 1045.58 71.4C1047.38 69.6 1049.58 68.7 1052.18 68.7ZM989.777 208.2C1000.38 208.2 1009.78 205.5 1017.98 200.1C1026.18 194.5 1032.58 186.9 1037.18 177.3C1041.98 167.5 1044.38 156.6 1044.38 144.6C1044.38 132.8 1041.98 122.2 1037.18 112.8C1032.58 103.4 1026.18 95.9 1017.98 90.3C1009.78 84.7 1000.38 81.9 989.777 81.9C979.377 81.9 969.977 84.6 961.577 90C953.377 95.4 946.877 102.8 942.077 112.2C937.477 121.6 935.177 132.4 935.177 144.6C935.177 156.6 937.477 167.5 942.077 177.3C946.877 186.9 953.377 194.5 961.577 200.1C969.777 205.5 979.177 208.2 989.777 208.2ZM1180.71 65.1C1193.91 65.1 1204.41 67.8 1212.21 73.2C1220.21 78.4 1225.91 85.6 1229.31 94.8C1232.91 103.8 1234.71 113.8 1234.71 124.8V213C1234.71 215.4 1233.81 217.5 1232.01 219.3C1230.21 221.1 1228.11 222 1225.71 222C1222.91 222 1220.71 221.1 1219.11 219.3C1217.51 217.5 1216.71 215.4 1216.71 213V125.7C1216.71 117.7 1215.41 110.4 1212.81 103.8C1210.21 97.2 1205.91 91.9 1199.91 87.9C1194.11 83.9 1186.41 81.9 1176.81 81.9C1168.21 81.9 1160.01 83.9 1152.21 87.9C1144.61 91.9 1138.41 97.2 1133.61 103.8C1128.81 110.4 1126.41 117.7 1126.41 125.7V213C1126.41 215.4 1125.51 217.5 1123.71 219.3C1121.91 221.1 1119.81 222 1117.41 222C1114.61 222 1112.41 221.1 1110.81 219.3C1109.21 217.5 1108.41 215.4 1108.41 213V78.6C1108.41 76.2 1109.21 74.1 1110.81 72.3C1112.61 70.5 1114.81 69.6 1117.41 69.6C1120.01 69.6 1122.11 70.5 1123.71 72.3C1125.51 74.1 1126.41 76.2 1126.41 78.6V103.8L1119.51 114.6C1119.91 108.2 1121.91 102.1 1125.51 96.3C1129.31 90.3 1134.11 85 1139.91 80.4C1145.71 75.6 1152.11 71.9 1159.11 69.3C1166.31 66.5 1173.51 65.1 1180.71 65.1ZM1349.35 65.1C1358.95 65.1 1367.75 66.2 1375.75 68.4C1383.75 70.4 1390.15 73.2 1394.95 76.8C1399.95 80.4 1402.45 84.3 1402.45 88.5C1402.45 90.5 1401.75 92.5 1400.35 94.5C1398.95 96.3 1397.05 97.2 1394.65 97.2C1392.25 97.2 1390.25 96.6 1388.65 95.4C1387.25 94.2 1385.75 92.8 1384.15 91.2C1382.75 89.6 1380.65 88.1 1377.85 86.7C1375.25 85.5 1371.55 84.4 1366.75 83.4C1361.95 82.4 1356.45 81.9 1350.25 81.9C1339.05 81.9 1328.95 84.7 1319.95 90.3C1310.95 95.9 1303.85 103.5 1298.65 113.1C1293.45 122.5 1290.85 133.1 1290.85 144.9C1290.85 156.9 1293.35 167.7 1298.35 177.3C1303.35 186.9 1310.25 194.5 1319.05 200.1C1327.85 205.5 1338.15 208.2 1349.95 208.2C1357.95 208.2 1364.15 207.5 1368.55 206.1C1372.95 204.7 1376.75 203.1 1379.95 201.3C1383.75 199.1 1386.45 197 1388.05 195C1389.85 192.8 1392.15 191.7 1394.95 191.7C1397.55 191.7 1399.45 192.5 1400.65 194.1C1402.05 195.5 1402.75 197.4 1402.75 199.8C1402.75 203 1400.35 206.6 1395.55 210.6C1390.95 214.4 1384.55 217.8 1376.35 220.8C1368.15 223.6 1358.75 225 1348.15 225C1333.15 225 1319.95 221.5 1308.55 214.5C1297.35 207.5 1288.55 198 1282.15 186C1275.95 173.8 1272.85 160.1 1272.85 144.9C1272.85 130.3 1276.05 117 1282.45 105C1288.85 93 1297.75 83.4 1309.15 76.2C1320.75 68.8 1334.15 65.1 1349.35 65.1ZM1551.42 66C1554.02 66 1556.12 66.9 1557.72 68.7C1559.52 70.5 1560.42 72.6 1560.42 75V207.3C1560.42 223.5 1557.22 237.1 1550.82 248.1C1544.42 259.3 1535.82 267.7 1525.02 273.3C1514.22 279.1 1501.92 282 1488.12 282C1479.52 282 1471.52 281 1464.12 279C1456.92 277.2 1451.02 274.8 1446.42 271.8C1444.02 270.4 1442.22 268.7 1441.02 266.7C1439.82 264.7 1439.72 262.6 1440.72 260.4C1441.72 257.6 1443.22 255.7 1445.22 254.7C1447.42 253.9 1449.62 254 1451.82 255C1455.22 256.8 1460.12 259 1466.52 261.6C1472.92 264.2 1480.22 265.5 1488.42 265.5C1499.42 265.5 1508.92 263.2 1516.92 258.6C1525.12 254 1531.42 247.3 1535.82 238.5C1540.22 229.9 1542.42 219.6 1542.42 207.6V186L1544.52 193.2C1541.52 199.4 1537.22 204.9 1531.62 209.7C1526.22 214.5 1519.92 218.3 1512.72 221.1C1505.72 223.7 1498.22 225 1490.22 225C1478.22 225 1468.22 222.6 1460.22 217.8C1452.42 212.8 1446.62 206 1442.82 197.4C1439.02 188.8 1437.12 178.7 1437.12 167.1V75C1437.12 72.6 1437.92 70.5 1439.52 68.7C1441.12 66.9 1443.32 66 1446.12 66C1448.72 66 1450.82 66.9 1452.42 68.7C1454.22 70.5 1455.12 72.6 1455.12 75V164.4C1455.12 178.4 1458.12 189.2 1464.12 196.8C1470.32 204.4 1480.32 208.2 1494.12 208.2C1502.72 208.2 1510.62 206.2 1517.82 202.2C1525.02 198 1530.92 192.6 1535.52 186C1540.12 179.2 1542.42 172 1542.42 164.4V75C1542.42 72.6 1543.22 70.5 1544.82 68.7C1546.62 66.9 1548.82 66 1551.42 66Z" fill="#347AE2"/>
<rect width="282" height="282" rx="30" fill="#347AE2"/>
<circle cx="218.182" cy="89.4568" r="9.81775" fill="white"/>
<circle cx="203.456" cy="69.8213" r="9.81775" fill="white"/>
<circle cx="183.82" cy="55.0947" r="9.81775" fill="white"/>
<circle cx="160.503" cy="48.9586" r="9.81775" fill="white"/>
<circle cx="133.504" cy="50.1859" r="9.81775" fill="white"/>
<circle cx="110.187" cy="60.0036" r="9.81775" fill="white"/>
<circle cx="89.3243" cy="74.7302" r="9.81775" fill="white"/>
<circle cx="73.3704" cy="94.3657" r="9.81775" fill="white"/>
<circle cx="64.7799" cy="116.456" r="9.81775" fill="white"/>
<circle cx="63.5527" cy="141" r="9.81775" fill="white"/>
<circle cx="67.2343" cy="164.317" r="9.81775" fill="white"/>
<circle cx="74.5977" cy="185.18" r="9.81775" fill="white"/>
<circle cx="86.8699" cy="206.043" r="9.81775" fill="white"/>
<circle cx="128.595" cy="230.587" r="9.81775" fill="white"/>
<circle cx="104.051" cy="221.996" r="9.81775" fill="white"/>
<circle cx="153.14" cy="233.041" r="9.81775" fill="white"/>
<circle cx="177.684" cy="228.133" r="9.81775" fill="white"/>
<circle cx="201.001" cy="215.86" r="9.81775" fill="white"/>
<circle cx="218.182" cy="196.225" r="9.81775" fill="white"/>
</svg>
