<svg width="1115" height="1115" viewBox="0 0 1115 1115" fill="none" xmlns="http://www.w3.org/2000/svg">
<rect width="1115" height="1115" fill="white"/>
<path fill-rule="evenodd" clip-rule="evenodd" d="M465.064 320.871C463.563 320.871 462.044 320.511 460.632 319.766C455.965 317.3 454.178 311.507 456.633 306.825C457.936 304.341 488.903 245.994 529.859 248.625C535.124 248.95 539.118 253.499 538.793 258.781C538.471 264.063 533.865 268.062 528.683 267.749C504.838 266.114 480.77 301.894 473.509 315.748C471.805 319.006 468.492 320.871 465.064 320.871" fill="#5CD9A6"/>
<path fill-rule="evenodd" clip-rule="evenodd" d="M399.546 431.849C395.464 431.849 391.687 429.191 390.427 425.065C388.889 420.007 391.725 414.661 396.748 413.109C399.05 412.387 450.206 395.691 437.603 346.407C436.293 341.278 439.37 336.054 444.47 334.744C449.582 333.416 454.777 336.514 456.087 341.636C469.822 395.391 426.939 423.871 402.337 431.427C401.409 431.711 400.474 431.851 399.546 431.851" fill="#5CD9A6"/>
<path fill-rule="evenodd" clip-rule="evenodd" d="M501.981 365.367C501.383 365.367 500.786 365.312 500.181 365.192C494.999 364.196 491.61 359.182 492.595 353.983C505.828 284.446 563.196 283.743 564.01 283.743H564.016C569.281 283.762 573.535 288.074 573.509 293.362C573.484 298.638 569.224 302.898 563.984 302.905C562.14 302.924 521.533 303.984 511.34 357.579C510.463 362.171 506.463 365.365 501.98 365.365" fill="#5CD9A6"/>
<path fill-rule="evenodd" clip-rule="evenodd" d="M416.635 494.719C414.855 494.719 413.061 494.22 411.459 493.179C407.034 490.299 405.774 484.365 408.636 479.926C414.887 470.249 471.091 385.364 521.414 385.274H521.427C526.692 385.274 530.958 389.554 530.965 394.836C530.978 400.125 526.717 404.423 521.446 404.436C487.465 404.501 440.048 466.475 424.647 490.35C422.822 493.179 419.758 494.719 416.635 494.719" fill="#5CD9A6"/>
<path fill-rule="evenodd" clip-rule="evenodd" d="M472.317 540.693C470.479 540.693 468.629 540.163 466.995 539.058C462.627 536.1 461.469 530.148 464.413 525.76C472.222 514.109 477.207 506.822 480.825 502.357C473.773 460.687 499.113 445.926 515.092 440.817C520.116 439.194 525.47 441.992 527.072 447.038C528.668 452.077 525.896 457.468 520.879 459.071C502.146 465.062 495.52 478.495 500.028 501.335C500.6 504.235 501.465 508.604 497.733 512.34C497.37 512.699 496.989 513.024 496.575 513.324C494.044 516.339 486.395 527.28 480.233 536.465C478.39 539.211 475.375 540.693 472.317 540.693" fill="#5CD9A6"/>
<path fill-rule="evenodd" clip-rule="evenodd" d="M526.925 532.646C522.97 532.646 519.276 530.155 517.909 526.195C513.165 512.405 492.442 515.023 492.226 515.062C487.012 515.713 482.205 512.079 481.505 506.835C480.805 501.591 484.468 496.769 489.695 496.066C503.169 494.246 528.121 497.223 535.942 519.929C537.659 524.93 535.02 530.385 530.041 532.116C529.011 532.475 527.955 532.646 526.925 532.646" fill="#5CD9A6"/>
<path fill-rule="evenodd" clip-rule="evenodd" d="M496.783 584.236C489.668 584.236 482.209 583.476 474.769 581.917C460.252 578.877 433.724 570.171 419.213 546.053C416.486 541.524 417.929 535.635 422.437 532.895C426.945 530.168 432.802 531.605 435.53 536.14C443.402 549.221 459.127 559.07 478.667 563.164C498.926 567.399 515.541 564.096 522.402 559.217C526.688 556.164 532.659 557.186 535.698 561.503C538.744 565.827 537.72 571.806 533.422 574.859C524.799 580.984 511.522 584.235 496.783 584.235" fill="#5CD9A6"/>
<path fill-rule="evenodd" clip-rule="evenodd" d="M525.801 200C513.897 200 501.86 203.417 492.767 209.376C487.655 212.723 481.265 215.776 474.499 219.008C457.617 227.075 438.483 236.215 427.426 255.466C420.107 268.221 420.558 279.757 420.895 288.181C420.994 290.838 421.094 293.221 420.965 295.463C419.318 297.155 415.929 299.755 413.767 301.409C409.856 304.398 405.818 307.49 402.531 311.245C376.015 341.521 382.838 369.126 386.914 385.618C387.798 389.182 388.631 392.548 388.885 394.962C389.382 399.618 388.873 409.538 388.468 417.509C388.086 425.097 387.718 432.257 387.972 437.475C388.364 445.523 391.85 453.865 396.365 463.931C397.421 466.275 398.61 468.932 399.029 470.139C402.507 480.167 404.828 500.893 405.585 507.702C412.001 565.053 452.201 585.638 481.559 600.674C486.671 603.293 491.497 605.764 495.91 608.275C504.049 612.918 516.398 615.92 527.373 615.92C549.177 615.92 564.603 604.142 567.63 585.191C570.688 566.03 571 544.709 570.879 524.532V524.453C570.427 448.297 570.73 251.808 571.003 242.355C571.326 230.878 567.607 220.786 560.231 213.166C552.018 204.675 539.791 200 525.801 200H525.801ZM526.615 519.608C526.615 519.608 526.412 519.269 526.144 518.822C526.248 519.002 526.362 519.181 526.486 519.39C526.576 519.54 526.615 519.61 526.615 519.61V519.608ZM537.634 260.546C537.621 260.546 537.614 260.552 537.609 260.552H537.603C537.616 260.552 537.623 260.546 537.634 260.546L537.64 260.54L537.634 260.546H537.634ZM525.801 219.162C539.478 219.162 552.386 225.664 551.929 241.798C551.626 252.394 551.363 450.856 551.8 524.564V524.41C551.793 522.679 551.78 521.325 551.774 520.175V519.696V520.175C551.787 521.79 551.794 523.426 551.8 524.41V524.574V524.644C551.909 542.994 551.675 564.027 548.785 582.154C547.018 593.261 537.397 596.755 527.369 596.755C518.734 596.755 509.794 594.162 505.324 591.607C474.573 574.081 430.774 561.332 424.543 505.559C422.972 491.52 420.702 474.396 417.04 463.832C414.852 457.521 407.387 443.955 407.025 436.533C406.543 426.677 409.002 403.767 407.852 392.928C406.02 375.618 391.478 352.867 416.849 323.895C422.872 317.022 438.463 309.524 439.703 299.911C441.337 287.201 436.943 277.243 443.951 265.037C455.88 244.26 483.991 238 503.188 225.417C509.223 221.464 517.648 219.158 525.8 219.158" fill="#5CD9A6"/>
<path fill-rule="evenodd" clip-rule="evenodd" d="M603.423 200C589.434 200 577.206 204.675 568.997 213.164C561.621 220.784 557.901 230.876 558.226 242.347C558.499 251.813 558.798 448.308 558.35 524.449V524.649C558.226 544.711 558.543 566.031 561.599 585.193C564.626 604.144 580.052 615.922 601.856 615.922C612.831 615.922 625.18 612.919 633.319 608.276C637.732 605.766 642.558 603.294 647.671 600.675C677.029 585.64 717.228 565.054 723.644 507.704C724.401 500.895 726.722 480.175 730.2 470.147C730.622 468.933 731.808 466.276 732.865 463.932C737.379 453.866 740.864 445.525 741.258 437.47C741.511 432.258 741.144 425.098 740.761 417.51C740.354 409.539 739.844 399.619 740.339 394.963C740.593 392.549 741.427 389.183 742.311 385.619C746.387 369.127 753.21 341.522 726.694 311.246C723.406 307.491 719.369 304.399 715.458 301.41C713.296 299.756 709.907 297.156 708.26 295.464C708.131 293.222 708.229 290.839 708.329 288.182C708.667 279.758 709.118 268.222 701.799 255.467C690.742 236.216 671.609 227.076 654.727 219.009C647.961 215.778 641.577 212.724 636.464 209.377C627.365 203.418 615.328 200.001 603.425 200.001L603.423 200ZM602.611 519.609C602.611 519.609 602.649 519.539 602.74 519.389C602.869 519.18 602.973 519 603.083 518.821C602.814 519.27 602.611 519.607 602.611 519.607V519.609ZM591.59 260.543C591.603 260.543 591.61 260.549 591.621 260.549H591.615C591.609 260.549 591.602 260.543 591.59 260.543L591.584 260.537L591.59 260.543H591.59ZM603.423 219.161C611.575 219.161 620.006 221.473 626.034 225.42C645.231 238.003 673.343 244.262 685.272 265.04C692.279 277.246 687.885 287.203 689.52 299.914C690.76 309.526 706.351 317.025 712.373 323.898C737.744 352.87 723.202 375.621 721.37 392.93C720.219 403.769 722.68 426.68 722.197 436.535C721.835 443.957 714.37 457.524 712.182 463.834C708.519 474.398 706.25 491.522 704.679 505.562C698.447 561.334 654.649 574.083 623.898 591.61C619.428 594.164 610.488 596.758 601.853 596.758C591.831 596.758 582.204 593.264 580.437 582.157C577.543 564.03 577.315 542.997 577.422 524.646V524.577V524.412C577.422 523.754 577.429 522.815 577.435 521.787C577.441 521.014 577.448 520.324 577.448 519.698C577.448 520.401 577.442 521.11 577.435 521.787C577.435 522.559 577.429 523.422 577.422 524.412V524.567C577.859 450.859 577.601 252.396 577.293 241.8C576.836 225.66 589.744 219.164 603.421 219.164" fill="#5CD9A6"/>
<path fill-rule="evenodd" clip-rule="evenodd" d="M664.165 320.865C660.744 320.865 657.431 319.007 655.72 315.755C648.427 301.902 624.404 266.108 600.54 267.749C595.427 268.069 590.754 264.064 590.429 258.782C590.107 253.499 594.099 248.952 599.363 248.626C640.326 245.969 671.293 304.341 672.596 306.826C675.051 311.508 673.264 317.288 668.603 319.76C667.191 320.507 665.665 320.865 664.165 320.865" fill="#5CD9A6"/>
<path fill-rule="evenodd" clip-rule="evenodd" d="M729.67 431.848C728.741 431.848 727.807 431.713 726.885 431.429C702.283 423.873 659.4 395.392 673.135 341.638C674.445 336.515 679.627 333.418 684.752 334.746C689.852 336.056 692.929 341.28 691.619 346.409C679.004 395.75 730.293 412.427 732.48 413.11C737.497 414.682 740.321 420.041 738.776 425.086C737.504 429.2 733.746 431.85 729.67 431.85" fill="#5CD9A6"/>
<path fill-rule="evenodd" clip-rule="evenodd" d="M627.248 365.367C622.765 365.367 618.765 362.173 617.888 357.581C607.638 303.673 567.502 302.907 565.327 302.907C565.277 302.9 565.272 302.907 565.252 302.907C560.007 302.907 555.74 298.64 555.714 293.364C555.689 288.076 559.943 283.764 565.208 283.745H565.214C566.022 283.745 623.403 284.441 636.635 353.985C637.621 359.184 634.231 364.198 629.049 365.194C628.445 365.309 627.847 365.369 627.249 365.369" fill="#5CD9A6"/>
<path fill-rule="evenodd" clip-rule="evenodd" d="M712.588 494.719C709.466 494.719 706.401 493.179 704.576 490.35C689.156 466.475 641.714 404.5 607.784 404.436C602.512 404.423 598.252 400.125 598.265 394.836C598.271 389.554 602.538 385.274 607.803 385.274H607.816C658.132 385.364 714.336 470.249 720.587 479.926C723.448 484.365 722.189 490.299 717.77 493.173C716.162 494.22 714.368 494.719 712.588 494.719" fill="#5CD9A6"/>
<path fill-rule="evenodd" clip-rule="evenodd" d="M636.799 515.028C637.791 515.188 638.904 515.203 640.118 514.958C639.012 515.183 637.88 515.193 636.799 515.028ZM656.911 540.692C653.853 540.692 650.839 539.21 648.995 536.463C642.833 527.285 635.19 516.35 632.653 513.323C632.241 513.028 631.852 512.697 631.489 512.339C627.756 508.603 628.621 504.234 629.193 501.334C633.702 478.493 627.076 465.061 608.343 459.07C603.326 457.467 600.554 452.083 602.15 447.037C603.746 441.991 609.106 439.193 614.136 440.816C630.109 445.925 655.442 460.686 648.397 502.35C652.021 506.814 657 514.102 664.815 525.759C667.759 530.146 666.602 536.099 662.233 539.057C660.599 540.162 658.749 540.692 656.911 540.692" fill="#5CD9A6"/>
<path fill-rule="evenodd" clip-rule="evenodd" d="M602.298 532.646C601.267 532.646 600.212 532.471 599.182 532.115C594.203 530.385 591.565 524.93 593.281 519.929C601.103 497.222 626.022 494.252 639.528 496.066C644.755 496.769 648.418 501.591 647.718 506.835C647.019 512.072 642.224 515.777 637.036 515.062C636.678 515.024 615.976 512.628 611.315 526.194C609.948 530.154 606.253 532.645 602.298 532.645" fill="#5CD9A6"/>
<path fill-rule="evenodd" clip-rule="evenodd" d="M632.439 584.236C617.7 584.236 604.423 580.985 595.801 574.86C591.502 571.807 590.478 565.828 593.524 561.504C596.557 557.187 602.535 556.165 606.82 559.218C613.681 564.097 630.297 567.4 650.555 563.165C670.096 559.071 685.821 549.222 693.693 536.141C696.42 531.606 702.277 530.175 706.785 532.896C711.294 535.636 712.737 541.525 710.009 546.054C695.499 570.172 668.97 578.878 654.453 581.918C647.014 583.476 639.555 584.237 632.439 584.237" fill="#5CD9A6"/>
<path d="M291.51 767.765C284.342 761.984 274.398 758.515 262.836 758.515C248.499 758.515 231.618 761.984 217.974 767.765C215.893 768.69 214.968 770.077 214.506 771.927L195.312 877.606C194.85 880.381 196.237 882 198.781 882H225.374C227.687 882 229.074 880.844 229.537 878.3L245.261 791.583C248.499 789.964 253.586 788.808 258.674 788.808C269.08 788.808 273.936 795.283 271.392 810.083L259.599 877.606C259.136 880.15 260.524 882 263.298 882H289.429C291.742 882 293.36 880.613 293.592 878.3L304.923 814.939C306.31 807.077 306.31 799.446 305.154 792.971C309.316 790.658 315.097 788.808 320.647 788.808C331.747 788.808 337.066 795.283 334.522 810.083L322.728 877.606C322.497 880.15 323.653 882 326.428 882H352.559C354.872 882 356.49 880.613 356.721 878.3L368.284 814.939C373.834 782.102 357.646 758.515 325.735 758.515C314.172 758.515 302.379 761.984 291.51 767.765ZM390.438 802.914L384.426 836.445C379.107 866.507 400.15 885.006 430.443 885.006C450.562 885.006 466.286 879.456 478.774 870.9C480.855 869.744 481.086 867.663 480.161 865.35L470.68 847.544C469.524 845.001 467.674 844.77 465.361 846.388C456.112 851.938 445.474 855.638 435.3 855.638C422.581 855.638 417.031 849.626 419.344 837.37L420.037 834.132H484.324C486.636 834.132 488.024 832.976 488.486 830.664L492.417 808.233C498.661 774.24 477.617 758.515 448.018 758.515C420.037 758.515 395.988 772.621 390.438 802.914ZM459.118 805.227L457.962 811.008H424.2L425.356 804.764C427.437 793.896 435.068 787.883 445.012 787.883C456.805 787.883 460.737 795.977 459.118 805.227ZM596.374 767.765C589.206 761.984 579.262 758.515 567.7 758.515C553.363 758.515 536.482 761.984 522.839 767.765C520.757 768.69 519.832 770.077 519.37 771.927L500.177 877.606C499.714 880.381 501.102 882 503.645 882H530.238C532.551 882 533.938 880.844 534.401 878.3L550.125 791.583C553.363 789.964 558.45 788.808 563.538 788.808C573.944 788.808 578.8 795.283 576.256 810.083L564.463 877.606C564 880.15 565.388 882 568.163 882H594.293C596.606 882 598.224 880.613 598.456 878.3L609.787 814.939C611.174 807.077 611.174 799.446 610.018 792.971C614.18 790.658 619.961 788.808 625.511 788.808C636.611 788.808 641.93 795.283 639.386 810.083L627.593 877.606C627.361 880.15 628.518 882 631.292 882H657.423C659.736 882 661.354 880.613 661.586 878.3L673.148 814.939C678.698 782.102 662.511 758.515 630.599 758.515C619.036 758.515 607.243 761.984 596.374 767.765ZM695.302 802.914L689.29 836.445C683.971 866.507 705.014 885.006 735.308 885.006C755.426 885.006 771.151 879.456 783.638 870.9C785.719 869.744 785.95 867.663 785.025 865.35L775.544 847.544C774.388 845.001 772.538 844.77 770.226 846.388C760.976 851.938 750.338 855.638 740.164 855.638C727.445 855.638 721.895 849.626 724.208 837.37L724.902 834.132H789.188C791.5 834.132 792.888 832.976 793.35 830.664L797.281 808.233C803.525 774.24 782.482 758.515 752.882 758.515C724.902 758.515 700.852 772.621 695.302 802.914ZM763.982 805.227L762.826 811.008H729.064L730.22 804.764C732.301 793.896 739.932 787.883 749.876 787.883C761.67 787.883 765.601 795.977 763.982 805.227ZM916.318 761.753H887.181C884.869 761.753 883.481 762.446 882.556 764.296L861.051 799.446L851.801 764.99C851.107 762.678 849.72 761.753 847.407 761.753H819.427C816.652 761.753 815.495 763.371 816.42 766.146L836.076 819.564L793.758 877.144C791.908 879.688 793.065 882 796.533 882H826.595C828.676 882 830.295 881.075 831.451 879.225L854.576 845.001L864.982 878.531C865.676 880.844 867.063 882 869.375 882H897.819C900.825 882 902.212 880.15 901.056 877.375L879.55 822.108L918.862 766.377C920.712 763.834 919.556 761.753 916.318 761.753Z" fill="#36362F"/>
</svg>
